<?xml version="1.0" encoding="UTF-8"?>
<svg xmlns="http://www.w3.org/2000/svg" xmlns:xlink="http://www.w3.org/1999/xlink" width="24px" height="24px" viewBox="0 0 24 24" version="1.1">
<g id="surface1">
<path style=" stroke:none;fill-rule:nonzero;fill:rgb(0%,0%,0%);fill-opacity:1;" d="M 12 0 C 5.371094 0 0 5.371094 0 12 C 0 18.628906 5.371094 24 12 24 C 18.628906 24 24 18.628906 24 12 C 24 5.371094 18.628906 0 12 0 Z M 12 22 C 6.476562 22 2 17.523438 2 12 C 2 6.476562 6.476562 2 12 2 C 17.523438 2 22 6.476562 22 12 C 22 17.523438 17.523438 22 12 22 Z M 12 22 "/>
<path style=" stroke:none;fill-rule:nonzero;fill:rgb(0%,0%,0%);fill-opacity:1;" d="M 13 6 L 11 6 L 11 11 L 6 11 L 6 13 L 11 13 L 11 18 L 13 18 L 13 13 L 18 13 L 18 11 L 13 11 Z M 13 6 "/>
</g>
</svg>
