<?xml version="1.0" encoding="UTF-8"?>
<svg xmlns="http://www.w3.org/2000/svg" xmlns:xlink="http://www.w3.org/1999/xlink" width="24px" height="24px" viewBox="0 0 24 24" version="1.1">
<g id="surface1">
<path style=" stroke:none;fill-rule:nonzero;fill:rgb(0%,0%,0%);fill-opacity:1;" d="M 19 5 L 5 5 C 3.34375 5 2 6.34375 2 8 L 2 16 C 2 17.65625 3.34375 19 5 19 L 19 19 C 20.65625 19 22 17.65625 22 16 L 22 8 C 22 6.34375 20.65625 5 19 5 Z M 11 15 L 7 15 C 6.449219 15 6 14.550781 6 14 C 6 13.449219 6.449219 13 7 13 L 11 13 C 11.550781 13 12 13.449219 12 14 C 12 14.550781 11.550781 15 11 15 Z M 17 15 L 15 15 C 14.449219 15 14 14.550781 14 14 C 14 13.449219 14.449219 13 15 13 L 17 13 C 17.550781 13 18 13.449219 18 14 C 18 14.550781 17.550781 15 17 15 Z M 20 9 L 4 9 L 4 8 C 4 7.449219 4.449219 7 5 7 L 19 7 C 19.550781 7 20 7.449219 20 8 Z M 20 9 "/>
</g>
</svg>
