<?xml version="1.0" encoding="UTF-8"?>
<svg xmlns="http://www.w3.org/2000/svg" xmlns:xlink="http://www.w3.org/1999/xlink" width="24px" height="24px" viewBox="0 0 24 24" version="1.1">
<g id="surface1">
<path style=" stroke:none;fill-rule:nonzero;fill:rgb(0%,0%,0%);fill-opacity:1;" d="M 4 13 L 10 13 C 10.550781 13 11 12.550781 11 12 L 11 4 C 11 3.449219 10.550781 3 10 3 L 4 3 C 3.449219 3 3 3.449219 3 4 L 3 12 C 3 12.550781 3.449219 13 4 13 Z M 4 21 L 10 21 C 10.550781 21 11 20.550781 11 20 L 11 16 C 11 15.449219 10.550781 15 10 15 L 4 15 C 3.449219 15 3 15.449219 3 16 L 3 20 C 3 20.550781 3.449219 21 4 21 Z M 14 21 L 20 21 C 20.550781 21 21 20.550781 21 20 L 21 12 C 21 11.449219 20.550781 11 20 11 L 14 11 C 13.449219 11 13 11.449219 13 12 L 13 20 C 13 20.550781 13.449219 21 14 21 Z M 13 4 L 13 8 C 13 8.550781 13.449219 9 14 9 L 20 9 C 20.550781 9 21 8.550781 21 8 L 21 4 C 21 3.449219 20.550781 3 20 3 L 14 3 C 13.449219 3 13 3.449219 13 4 Z M 13 4 "/>
</g>
</svg>
