<?xml version="1.0" encoding="UTF-8"?>
<svg xmlns="http://www.w3.org/2000/svg" xmlns:xlink="http://www.w3.org/1999/xlink" width="24px" height="24px" viewBox="0 0 24 24" version="1.1">
<g id="surface1">
<path style=" stroke:none;fill-rule:nonzero;fill:rgb(0%,0%,0%);fill-opacity:1;" d="M 0.375 19.199219 L 2.0625 19.199219 L 2.0625 18.449219 L 0.375 18.449219 C 0.167969 18.449219 0 18.617188 0 18.824219 C 0 19.03125 0.167969 19.199219 0.375 19.199219 Z M 20.8125 23.625 C 21.5 23.628906 22.117188 23.214844 22.382812 22.585938 C 22.648438 21.953125 22.503906 21.222656 22.019531 20.734375 C 21.535156 20.25 20.808594 20.101562 20.171875 20.363281 C 19.539062 20.625 19.125 21.246094 19.125 21.929688 C 19.125 22.863281 19.878906 23.621094 20.8125 23.625 Z M 20.8125 20.988281 C 21.195312 20.988281 21.539062 21.214844 21.683594 21.566406 C 21.832031 21.917969 21.753906 22.324219 21.484375 22.59375 C 21.214844 22.863281 20.808594 22.945312 20.457031 22.800781 C 20.105469 22.65625 19.875 22.3125 19.875 21.929688 C 19.875 21.410156 20.292969 20.992188 20.8125 20.988281 Z M 5.4375 5.363281 C 6.277344 5.367188 7.035156 4.867188 7.355469 4.09375 C 7.679688 3.320312 7.503906 2.425781 6.914062 1.832031 C 6.320312 1.238281 5.429688 1.058594 4.65625 1.378906 C 3.882812 1.699219 3.375 2.453125 3.375 3.292969 C 3.375 4.433594 4.296875 5.359375 5.4375 5.363281 Z M 23.625 0.375 L 14.25 0.375 C 14.042969 0.375 13.875 0.542969 13.875 0.75 L 13.875 13.179688 L 15.03125 14.328125 L 16.097656 13.316406 C 16.867188 12.554688 17.949219 12.203125 19.019531 12.375 L 19.796875 11.59375 C 19.867188 11.523438 19.964844 11.480469 20.0625 11.480469 C 20.160156 11.480469 20.257812 11.523438 20.328125 11.59375 C 20.398438 11.664062 20.4375 11.757812 20.4375 11.859375 C 20.4375 11.960938 20.398438 12.054688 20.328125 12.125 L 19.84375 12.609375 C 20.238281 12.78125 20.597656 13.027344 20.902344 13.335938 L 23.246094 15.691406 L 23.25 15.691406 L 23.753906 16.199219 C 23.828125 16.273438 23.898438 16.351562 23.964844 16.433594 C 23.972656 16.441406 23.984375 16.453125 23.992188 16.464844 C 23.996094 16.46875 24 16.46875 24 16.472656 L 24 0.75 C 24 0.542969 23.832031 0.375 23.625 0.375 Z M 17.546875 7.453125 L 19.796875 5.191406 C 19.945312 5.046875 20.183594 5.046875 20.328125 5.195312 C 20.476562 5.339844 20.472656 5.578125 20.328125 5.722656 L 18.078125 7.984375 C 17.929688 8.125 17.695312 8.125 17.546875 7.984375 C 17.476562 7.914062 17.4375 7.816406 17.4375 7.71875 C 17.4375 7.617188 17.476562 7.523438 17.546875 7.453125 Z M 21.265625 7.984375 L 17.140625 12.125 C 16.992188 12.269531 16.757812 12.269531 16.609375 12.125 C 16.539062 12.054688 16.5 11.960938 16.5 11.859375 C 16.5 11.757812 16.539062 11.664062 16.609375 11.59375 L 20.734375 7.453125 C 20.804688 7.378906 20.902344 7.339844 21 7.339844 C 21.097656 7.339844 21.195312 7.378906 21.265625 7.453125 C 21.335938 7.523438 21.375 7.617188 21.375 7.71875 C 21.375 7.816406 21.335938 7.914062 21.265625 7.984375 Z M 21.265625 7.984375 "/>
<path style=" stroke:none;fill-rule:nonzero;fill:rgb(0%,0%,0%);fill-opacity:1;" d="M 20.371094 13.863281 C 19.875 13.363281 19.199219 13.082031 18.496094 13.082031 C 17.792969 13.082031 17.117188 13.359375 16.621094 13.855469 L 15.007812 15.382812 L 12.382812 12.75 C 12.5 12.566406 12.5625 12.355469 12.5625 12.140625 L 12.5625 8.1875 C 12.5625 7.746094 12.308594 7.347656 11.910156 7.160156 L 7.5625 5.136719 C 7.378906 5.347656 7.167969 5.53125 6.933594 5.679688 C 6.964844 5.691406 6.992188 5.703125 7.023438 5.71875 L 11.59375 7.84375 C 11.726562 7.90625 11.8125 8.039062 11.8125 8.1875 L 11.8125 12.140625 C 11.808594 12.34375 11.640625 12.503906 11.4375 12.503906 C 11.234375 12.503906 11.066406 12.34375 11.0625 12.140625 L 11.0625 8.867188 C 11.0625 8.574219 10.894531 8.308594 10.628906 8.183594 L 8.597656 7.234375 C 8.480469 7.183594 8.34375 7.191406 8.238281 7.261719 C 8.128906 7.328125 8.066406 7.449219 8.0625 7.574219 L 8.0625 14.230469 L 8.25 17.996094 C 8.25 18.007812 8.25 18.019531 8.253906 18.03125 C 8.253906 18.03125 8.859375 22.222656 8.859375 22.230469 C 8.878906 22.390625 8.828125 22.554688 8.722656 22.675781 C 8.617188 22.796875 8.460938 22.871094 8.300781 22.871094 L 8.28125 22.871094 C 8.003906 22.871094 7.769531 22.671875 7.726562 22.398438 L 6.9375 17.929688 C 6.9375 17.929688 6.5625 13.441406 6.5625 13.425781 C 6.542969 13.246094 6.398438 13.109375 6.21875 13.09375 C 6.039062 13.078125 5.875 13.191406 5.824219 13.363281 L 4.699219 17.695312 C 4.691406 17.726562 4.6875 17.757812 4.6875 17.789062 L 4.6875 22.308594 C 4.6875 22.617188 4.4375 22.871094 4.125 22.871094 C 3.8125 22.871094 3.5625 22.617188 3.5625 22.308594 L 3.5625 17.828125 L 4.304688 14.289062 C 4.308594 14.265625 4.3125 14.238281 4.3125 14.210938 L 4.3125 7.339844 C 4.3125 6.855469 4.507812 6.390625 4.859375 6.054688 C 4.722656 6.027344 4.585938 5.988281 4.457031 5.933594 C 4.394531 5.910156 4.328125 5.886719 4.265625 5.859375 C 4.210938 5.832031 4.15625 5.808594 4.101562 5.777344 C 3.996094 5.914062 3.902344 6.066406 3.824219 6.222656 C 3.824219 6.222656 0.40625 9.050781 0.402344 9.050781 C 0.175781 9.242188 0.03125 9.519531 0.0117188 9.816406 C -0.0117188 10.113281 0.0859375 10.410156 0.28125 10.632812 C 0.707031 11.078125 1.398438 11.125 1.882812 10.746094 L 3.5625 9.359375 L 3.5625 14.171875 L 2.820312 17.710938 C 2.816406 17.738281 2.8125 17.761719 2.8125 17.789062 L 2.8125 22.308594 C 2.8125 22.777344 3.058594 23.210938 3.46875 23.449219 C 3.875 23.683594 4.375 23.683594 4.78125 23.449219 C 5.191406 23.210938 5.4375 22.777344 5.4375 22.308594 L 5.4375 17.835938 L 5.996094 15.6875 L 6.1875 18.007812 C 6.191406 18.019531 6.191406 18.03125 6.191406 18.042969 L 6.988281 22.527344 C 7.089844 23.160156 7.640625 23.625 8.28125 23.625 L 8.300781 23.625 C 8.679688 23.617188 9.035156 23.449219 9.285156 23.164062 C 9.53125 22.878906 9.648438 22.5 9.601562 22.125 L 9 17.941406 L 8.8125 14.210938 L 8.8125 8.164062 L 10.3125 8.867188 L 10.3125 12.140625 C 10.3125 12.761719 10.816406 13.269531 11.4375 13.269531 C 11.558594 13.269531 11.675781 13.25 11.789062 13.214844 L 15.417969 16.855469 L 17.496094 14.824219 C 17.957031 14.4375 18.625 14.433594 19.089844 14.8125 L 19.109375 14.832031 L 21.457031 17.269531 C 21.601562 17.417969 21.597656 17.65625 21.445312 17.800781 C 21.296875 17.945312 21.0625 17.941406 20.917969 17.792969 L 18.582031 15.367188 C 18.40625 15.25 18.179688 15.253906 18.007812 15.375 L 15.945312 17.386719 L 18.925781 20.382812 C 18.929688 20.378906 18.929688 20.378906 18.933594 20.378906 C 18.933594 20.378906 18.933594 20.375 18.9375 20.375 C 19.398438 19.8125 20.085938 19.484375 20.816406 19.488281 C 21.542969 19.488281 22.230469 19.8125 22.691406 20.378906 C 22.730469 20.425781 22.769531 20.472656 22.804688 20.523438 C 22.824219 20.546875 22.839844 20.574219 22.859375 20.601562 C 22.871094 20.625 22.882812 20.644531 22.894531 20.664062 C 22.921875 20.703125 22.941406 20.742188 22.964844 20.78125 L 23.222656 20.5 C 24.257812 19.457031 24.257812 17.773438 23.222656 16.730469 Z M 1.40625 10.167969 C 1.234375 10.300781 0.988281 10.285156 0.839844 10.125 C 0.777344 10.058594 0.746094 9.964844 0.753906 9.871094 C 0.761719 9.777344 0.808594 9.691406 0.878906 9.632812 L 3.5625 7.414062 L 3.5625 8.382812 Z M 1.40625 10.167969 "/>
</g>
</svg>
