<?xml version="1.0" encoding="UTF-8"?>
<svg xmlns="http://www.w3.org/2000/svg" xmlns:xlink="http://www.w3.org/1999/xlink" width="24px" height="24px" viewBox="0 0 24 24" version="1.1">
<g id="surface1">
<path style=" stroke:none;fill-rule:nonzero;fill:rgb(0%,0%,0%);fill-opacity:1;" d="M 12 0.480469 C 10.621094 0.480469 9.273438 0.722656 7.992188 1.195312 L 8.328125 2.097656 C 9.503906 1.660156 10.746094 1.4375 12 1.441406 C 17.824219 1.441406 22.558594 6.175781 22.558594 12 C 22.558594 17.824219 17.824219 22.558594 12 22.558594 C 6.175781 22.558594 1.441406 17.824219 1.441406 12 C 1.441406 8.851562 2.851562 5.863281 5.28125 3.859375 L 5.28125 7.199219 L 6.238281 7.199219 L 6.238281 2.398438 L 1.441406 2.398438 L 1.441406 3.359375 L 4.378906 3.359375 C 1.902344 5.546875 0.480469 8.695312 0.480469 12 C 0.480469 18.351562 5.648438 23.519531 12 23.519531 C 18.351562 23.519531 23.519531 18.351562 23.519531 12 C 23.519531 5.648438 18.351562 0.480469 12 0.480469 Z M 12 0.480469 "/>
<path style=" stroke:none;fill-rule:nonzero;fill:rgb(0%,0%,0%);fill-opacity:1;" d="M 9.121094 15.839844 L 8.160156 15.839844 L 8.160156 16.800781 L 15.839844 16.800781 L 15.839844 15.839844 L 14.878906 15.839844 L 14.878906 14.203125 L 12.679688 12 L 14.878906 9.796875 L 14.878906 8.160156 L 15.839844 8.160156 L 15.839844 7.199219 L 8.160156 7.199219 L 8.160156 8.160156 L 9.121094 8.160156 L 9.121094 9.796875 L 11.320312 12 L 9.121094 14.203125 Z M 10.078125 9.402344 L 10.078125 8.160156 L 13.921875 8.160156 L 13.921875 9.402344 L 12 11.320312 Z M 12 12.679688 L 13.921875 14.597656 L 13.921875 15.839844 L 10.078125 15.839844 L 10.078125 14.597656 Z M 9.121094 18.71875 L 10.078125 18.71875 L 10.078125 19.679688 L 9.121094 19.679688 Z M 11.519531 18.71875 L 12.480469 18.71875 L 12.480469 19.679688 L 11.519531 19.679688 Z M 13.921875 18.71875 L 14.878906 18.71875 L 14.878906 19.679688 L 13.921875 19.679688 Z M 13.921875 18.71875 "/>
</g>
</svg>
